<?xml version="1.0" encoding="UTF-8"?>
<svg width="23px" height="23px" viewBox="0 0 23 23" version="1.1" xmlns="http://www.w3.org/2000/svg" xmlns:xlink="http://www.w3.org/1999/xlink">
    <title>Artboard</title>
    <defs>
        <filter id="filter-1">
            <feColorMatrix in="SourceGraphic" type="matrix" values="0 0 0 0 1.000000 0 0 0 0 1.000000 0 0 0 0 1.000000 0 0 0 1.000000 0"></feColorMatrix>
        </filter>
    </defs>
    <g id="Artboard" stroke="none" stroke-width="1" fill="none" fill-rule="evenodd">
        <g filter="url(#filter-1)" id="PayForItself">
            <g transform="translate(2.500000, 3.000000)">
                <g id="Group" transform="translate(11.000000, 0.000000)" fill="#FFFFFF" fill-rule="nonzero">
                    <path d="M3.31299221,1.24051186 C3.73381956,1.32222222 4.15464691,1.48564295 4.56670702,1.74563046 L5.0664395,1.05480649 C4.54917255,0.735393258 4.01437113,0.534831461 3.34806116,0.467977528 L3.34806116,0 L2.57654435,0 L2.57654435,0.453121099 C1.43680362,0.534831461 0.665286812,1.08451935 0.665286812,1.9164794 L0.665286812,1.93133583 C0.665286812,2.79300874 1.27899336,3.20156055 2.6116133,3.49868914 C2.6116133,3.48950693 2.6116133,3.48950693 2.6116133,3.49868914 C2.6116133,3.83945838 2.6116133,4.36438555 2.6116133,5.07347066 C2.00667399,4.9917603 1.51570875,4.75405743 0.98967456,4.39007491 L0.428571429,5.06604245 C1.05104521,5.48945069 1.7699586,5.75686642 2.57654435,5.83857678 L2.57654435,6.61111111 L3.34806116,6.61111111 L3.34806116,5.85343321 C4.50533637,5.77172285 5.28562041,5.20717853 5.28562041,4.36036205 L5.28562041,4.34550562 C5.29438764,3.52097378 4.68944833,3.06042447 3.31299221,2.77072409 M2.6116133,2.6221598 C1.8663982,2.421598 1.69105347,2.21360799 1.69105347,1.87191011 L1.69105347,1.8644819 C1.68228624,1.51535581 2.01544122,1.24794007 2.6116133,1.19594257 L2.6116133,2.6221598 Z M3.31299221,5.10318352 L3.31299221,3.63982522 C4.04944007,3.82553059 4.25985375,4.04837703 4.25985375,4.39750312 L4.25985375,4.41235955 C4.25985375,4.79862672 3.91793153,5.05118602 3.31299221,5.10318352 Z" id="$"></path>
                </g>
                <path d="M9.77697054,0 C10.0667343,0 10.3016342,0.234899929 10.3016342,0.524663677 C10.3016342,0.736319861 10.1763037,0.918703542 9.99580775,1.00164975 L9.9955157,2.40807175 C9.9955157,2.6978355 9.76061577,2.93273543 9.47085202,2.93273543 C9.20743043,2.93273543 8.98935084,2.73860325 8.95187704,2.4856027 L8.94618834,2.40807175 L8.94591928,1.05013453 L8.77745682,1.05238184 C6.85090898,1.1053288 5.09555598,1.8436089 3.74643924,3.03218071 C3.76398855,3.03945163 3.78023704,3.04987969 3.79599313,3.06129076 L3.86085449,3.1168129 L4.52467797,3.78475368 C4.72893746,3.99028006 4.72791044,4.32247714 4.52238406,4.52673662 C4.33741031,4.71057015 4.04983331,4.72812162 3.84526248,4.57996485 L3.78040111,4.5244427 L3.11657763,3.85650193 C3.08292124,3.82263679 3.05483839,3.78533253 3.03232555,3.74572817 C1.79857879,5.14589905 1.04932735,6.985451 1.04932735,9 L1.05005314,9.1515059 C1.13106608,9.04605167 1.25124605,8.97225663 1.38883676,8.95187704 L1.46636771,8.94618834 L2.40807175,8.94618834 C2.6978355,8.94618834 2.93273543,9.18108827 2.93273543,9.47085202 C2.93273543,9.73427361 2.73860325,9.9523532 2.4856027,9.98982699 L2.40807175,9.9955157 L1.46636771,9.9955157 C1.31983945,9.9955157 1.18734065,9.93544847 1.09215176,9.83859449 C1.26962765,11.5258292 1.9748234,13.0570158 3.04010958,14.262547 L3.0622791,14.2252727 L3.11596213,14.1588811 L3.76504132,13.4766036 C3.96476397,13.2666657 4.2968594,13.2583847 4.50679724,13.4581073 C4.69574129,13.6378577 4.72134334,13.9248301 4.57897651,14.1334717 L4.52529348,14.1998632 L3.87621428,14.8821408 L3.81258084,14.9390661 L3.75543755,14.9757348 C5.14261478,16.1941502 6.95757572,16.9372287 8.94584209,16.9504921 L8.94618834,16.5336323 C8.94618834,16.2438685 9.18108827,16.0089686 9.47085202,16.0089686 C9.73427361,16.0089686 9.9523532,16.2031008 9.98982699,16.4561013 L9.9955157,16.5336323 L9.9958845,16.8889046 C11.6208722,16.685843 13.0934816,15.9923863 14.2609141,14.961333 C14.2466127,14.9552908 14.2333371,14.9469725 14.220371,14.9380017 L14.1543278,14.8838907 L13.476259,14.230416 C13.2676163,14.0293408 13.2614815,13.6971988 13.4625567,13.488556 C13.6435243,13.3007775 13.9306561,13.2770305 14.1383734,13.4207427 L14.2044166,13.4748537 L14.8824854,14.1283284 C14.9196574,14.1641522 14.9504015,14.2041361 14.9746911,14.2468408 C15.9978758,13.0818053 16.6866478,11.6144313 16.8889046,9.9958845 L16.5336323,9.9955157 C16.2438685,9.9955157 16.0089686,9.76061577 16.0089686,9.47085202 C16.0089686,9.20743043 16.2031008,8.98935084 16.4561013,8.95187704 L16.5336323,8.94618834 L16.9547085,8.94591928 L16.9563613,8.92246905 C16.9938351,8.6694685 17.2119147,8.47533632 17.4753363,8.47533632 C17.7651001,8.47533632 18,8.71023625 18,9 C18,9.12841301 17.9973106,9.25619787 17.9919851,9.38330135 C17.9974713,9.41131379 18,9.4407876 18,9.47085202 C18,9.52239102 17.9925687,9.57219435 17.9787191,9.61924893 C17.6745499,14.0964409 14.0964409,17.6745499 9.61971782,17.9789979 C9.57219435,17.9925687 9.52239102,18 9.47085202,18 C9.4407876,18 9.41131379,17.9974713 9.38263169,17.9926149 C9.25619787,17.9973106 9.12841301,18 9,18 C4.02943725,18 0,13.9705627 0,9 C0,4.10833507 3.90253384,0.128155762 8.76403024,0.00303333105 L9,0 L9.77697054,0 Z" id="Combined-Shape" fill="#FFFFFF" fill-rule="nonzero"></path>
                <path d="M9.49492102,4 C9.7459737,4 9.95424553,4.18135977 9.99338937,4.41897849 L10,4.50009678 L10,9.49923321 C10,9.84911408 9.65055209,10.0828993 9.33061778,9.97235405 L9.26265027,9.94331224 L6.27291311,8.41026058 C6.02521166,8.28324636 5.92840112,7.98146004 6.05668071,7.73620197 C6.17213234,7.5154697 6.43055972,7.41575344 6.66166504,7.49061088 L6.73745461,7.52210252 L8.98933066,8.676574 L8.98984204,4.50009678 C8.98984204,4.25152054 9.1730086,4.04530314 9.41299458,4.00654542 L9.49492102,4 Z" id="Path-14" fill="#FFFFFF" fill-rule="nonzero"></path>
            </g>
        </g>
    </g>
</svg>