<?xml version="1.0" encoding="UTF-8"?>
<svg width="46px" height="45px" viewBox="0 0 46 45" version="1.1" xmlns="http://www.w3.org/2000/svg" xmlns:xlink="http://www.w3.org/1999/xlink">
    <title>Artboard</title>
    <defs>
        <filter id="filter-1">
            <feColorMatrix in="SourceGraphic" type="matrix" values="0 0 0 0 1.000000 0 0 0 0 1.000000 0 0 0 0 1.000000 0 0 0 1.000000 0"></feColorMatrix>
        </filter>
    </defs>
    <g id="Artboard" stroke="none" stroke-width="1" fill="none" fill-rule="evenodd">
        <g filter="url(#filter-1)" id="icon.solar_-(2)">
            <g transform="translate(4.000000, 4.000000)">
                <polygon id="Fill-1" fill="#000000" fill-rule="nonzero" points="6.36857143 13.2996857 10.6928571 13.2996857 10.6928571 12.0002571 6.36857143 12.0002571"></polygon>
                <polygon id="Fill-2" fill="#FFFFFF" fill-rule="nonzero" points="6.36857143 13.2988286 10.6928571 13.2988286 10.6928571 11.9994 6.36857143 11.9994"></polygon>
                <polygon id="Fill-3" fill="#000000" fill-rule="nonzero" points="24.3685714 13.2996857 28.6928571 13.2996857 28.6928571 12.0002571 24.3685714 12.0002571"></polygon>
                <polygon id="Fill-4" fill="#FFFFFF" fill-rule="nonzero" points="24.3685714 13.2988286 28.692 13.2988286 28.692 11.9994 24.3685714 11.9994"></polygon>
                <polygon id="Fill-5" fill="#000000" fill-rule="nonzero" points="17.196 5.2134 18.4851429 5.2134 18.4851429 0.856542857 17.196 0.856542857"></polygon>
                <polygon id="Fill-6" fill="#FFFFFF" fill-rule="nonzero" points="17.196 5.2134 18.4851429 5.2134 18.4851429 0.856542857 17.196 0.856542857"></polygon>
                <polygon id="Fill-7" fill="#000000" fill-rule="nonzero" points="10.5281143 21.0964286 13.5855429 18.0158571 12.6735429 17.0978571 9.61697143 20.1775714"></polygon>
                <polygon id="Fill-8" fill="#FFFFFF" fill-rule="nonzero" points="9.61662857 20.178 10.5286286 21.0968571 13.5852 18.0162857 12.6740571 17.0974286"></polygon>
                <polygon id="Fill-9" fill="#000000" fill-rule="nonzero" points="26.5782 5.0238 25.6670571 4.10494286 22.6087714 7.18551429 23.5207714 8.10351429"></polygon>
                <polygon id="Fill-10" fill="#FFFFFF" fill-rule="nonzero" points="22.6090286 7.1856 23.5201714 8.1036 26.5784571 5.02388571 25.6673143 4.10502857"></polygon>
                <polygon id="Fill-11" fill="#010101" fill-rule="nonzero" points="13.5854571 7.18542857 10.5280286 4.10485714 9.61688571 5.02371429 12.6743143 8.10342857"></polygon>
                <polygon id="Fill-12" fill="#FFFFFF" fill-rule="nonzero" points="9.61662857 5.02405714 12.6740571 8.10377143 13.5852 7.18577143 10.5286286 4.1052"></polygon>
                <g id="Group-19" transform="translate(12.857143, 6.847114)" fill="#FFFFFF" fill-rule="nonzero" stroke="#FFFFFF">
                    <path d="M9.19687238,6.46422857 L5.30091429,6.46422857 L2.63010549,9.22509439 C1.26958656,8.45185076 0.351771429,6.98925107 0.351771429,5.31214286 C0.351771429,2.829 2.3652,0.815571429 4.84834286,0.815571429 C7.33234286,0.815571429 9.34577143,2.829 9.34577143,5.31214286 C9.34577143,5.71038611 9.2940191,6.096534 9.19687238,6.46422857 Z" id="Combined-Shape"></path>
                </g>
                <polygon id="Stroke-20" fill="#FFFFFF" fill-rule="nonzero" points="7.12551429 27.6204 12.8632286 21.8561143 21.4055143 21.8561143 15.6678 27.6204"></polygon>
                <polygon id="Stroke-21" fill="#FFFFFF" fill-rule="nonzero" points="13.4749714 21.2442 19.2126857 15.4799143 27.7541143 15.4799143 22.0172571 21.2442"></polygon>
                <polygon id="Stroke-22" fill="#FFFFFF" fill-rule="nonzero" points="22.9662857 21.2442 28.7031429 15.4799143 37.2454286 15.4799143 31.5085714 21.2442"></polygon>
                <polygon id="Stroke-23" fill="#FFFFFF" fill-rule="nonzero" points="16.6428 27.5676857 22.3805143 21.8034 30.9228 21.8034 25.1850857 27.5676857"></polygon>
                <polygon id="Stroke-24" fill="#FFFFFF" fill-rule="nonzero" points="0.618685714 34.1268857 6.3564 28.3626 14.8986857 28.3626 9.16097143 34.1268857"></polygon>
                <polygon id="Stroke-26" fill="#FFFFFF" fill-rule="nonzero" points="10.1359714 34.0740857 15.8736857 28.3098 24.4159714 28.3098 18.6782571 34.0740857"></polygon>
                <polygon id="Page-1" fill="#FFFFFF" fill-rule="nonzero" points="19.0801532 34.4595687 37.3387613 16.1037889 37.3387613 16.9609317 19.0801532 35.3698544"></polygon>
                <g id="Group-30" transform="translate(0.000000, 34.275686)" fill="#FFFFFF" fill-rule="nonzero">
                    <polygon id="Stroke-27" points="0.618857143 1.24028571 18.6745714 1.24028571 18.6745714 0.354857143 0.618857143 0.354857143"></polygon>
                </g>
            </g>
        </g>
    </g>
</svg>