<?xml version="1.0" encoding="UTF-8"?>
<svg width="16px" height="40px" viewBox="0 0 16 40" version="1.1" xmlns="http://www.w3.org/2000/svg" xmlns:xlink="http://www.w3.org/1999/xlink">
    <title>icon_store-energy 2</title>
    <g id="Latest" stroke="none" stroke-width="1" fill="none" fill-rule="evenodd">
        <g id="2_D_Powerwall_2" transform="translate(-419.000000, -729.000000)" fill="#FFFFFF">
            <g id="Group-4" transform="translate(344.000000, 729.000000)">
                <g id="icon_store-energy-2" transform="translate(75.000000, 0.000000)">
                    <g id="icon_store-energy">
                        <path d="M13.0905862,9 L14.626276,9.50634828 C15.4461184,9.77666707 16,10.5425059 16,11.4057636 L16,28.6099302 C16,29.4800419 15.4374365,30.2503176 14.608587,30.5150869 L13.0905862,31 L1.70915476,29.3271175 C0.778407982,29.1903131 0.0762871832,28.426177 0.00582396244,27.501794 L-2.1194868e-06,27.3463265 L0.0150048499,12.7146979 C0.0159609889,11.782473 0.659100855,10.9825676 1.55252675,10.7708839 L1.7127085,10.7397268 L13.0905862,9 Z M13.0905862,10.4666667 L13.0905862,30.2666667 L15.2726466,29.6617657 L15.2726466,11.0825047 L13.0905862,10.4666667 Z M6.40552861,15.0988205 L3.49251439,20.6042321 C3.42450628,20.7320172 3.52651845,20.8704512 3.67386937,20.8704512 L6.03976045,20.8704512 C6.15310731,20.8704512 6.2437848,20.9556413 6.2437848,21.0621289 L6.22111543,24.8104942 C6.22111543,25.0128208 6.51581725,25.0767134 6.60649474,24.8850356 L9.4061621,19.0282148 C9.46283553,18.9004297 9.36082336,18.7619957 9.21347244,18.7726445 L6.98359758,18.8152395 C6.87025073,18.8152395 6.77957324,18.7300494 6.77957324,18.6235618 L6.77957324,15.1840107 C6.79090793,14.9923329 6.50754079,14.9284403 6.40552861,15.0988205 Z" id="Combined-Shape"></path>
                    </g>
                </g>
            </g>
        </g>
    </g>
</svg>